<svg width="654" height="106" viewBox="0 0 654 106" fill="none" xmlns="http://www.w3.org/2000/svg">
<path d="M46.2914 63.9823H6.10815C6.10815 63.9823 13.0766 85.1165 24.0376 95.2843C31.502 102.205 44.0564 102.74 48.5233 102.74C57.4508 102.74 68.8272 102.172 76.2916 95.2459C89.3048 83.1852 95.4022 63.9823 95.4022 63.9823H46.2914Z" fill="#55ACEE"/>
<path d="M90.6872 75.1705C92.6184 71.3139 93.9359 68.0341 94.6767 66.0377C94.2582 65.328 93.6352 64.6418 92.854 63.9823H8.65615C7.87809 64.6418 7.25503 65.325 6.83655 66.0348C7.57121 68.0222 8.85764 71.2873 10.5967 75.0285C17.066 79.4854 30.5038 83.0581 50.7582 83.0581C70.7894 83.0581 84.1373 79.5594 90.6872 75.1705Z" fill="#3B88C3"/>
<path d="M0.509644 49.1948V62.3645C0.509644 69.2199 22.9866 74.78 50.1071 74.78C77.2338 74.78 99.7045 69.2199 99.7045 62.3645V49.1948H0.509644Z" fill="#55ACEE"/>
<path d="M6.26626 55.9467C9.05921 56.9256 27.0135 62.9944 49.6609 62.9944C75.1602 62.9944 93.846 57.7064 98.1238 54.7755C102.402 51.8388 102.24 26.3985 82.7641 16.5944C66.1335 8.2218 65.6685 0 49.819 0C26.0618 0.00295748 -15.9069 48.1656 6.26626 55.9467Z" fill="#F9D2DC"/>
<path d="M31.037 33.7243C40.0576 45.2585 60.4328 38.9176 69.1434 30.8407C76.2389 24.2574 85.1974 26.0112 95.3432 28.5221C92.5781 23.8404 88.5236 19.5284 82.73 16.6123C66.1055 8.24558 65.6405 0.0267334 49.7973 0.0267334C37.246 0.0267334 19.6141 13.4774 9.04675 27.3095C14.9179 25.4847 23.9322 24.6419 31.037 33.7243Z" fill="#F98097"/>
<path d="M31.5082 22.5774C33.2202 22.5774 34.608 21.2533 34.608 19.62C34.608 17.9866 33.2202 16.6625 31.5082 16.6625C29.7962 16.6625 28.4083 17.9866 28.4083 19.62C28.4083 21.2533 29.7962 22.5774 31.5082 22.5774Z" fill="#EA596E"/>
<path d="M50.1072 31.45C51.8192 31.45 53.207 30.1259 53.207 28.4925C53.207 26.8591 51.8192 25.535 50.1072 25.535C48.3952 25.535 47.0073 26.8591 47.0073 28.4925C47.0073 30.1259 48.3952 31.45 50.1072 31.45Z" fill="#EA596E"/>
<path d="M62.5065 16.6625C64.2185 16.6625 65.6063 15.3384 65.6063 13.705C65.6063 12.0717 64.2185 10.7476 62.5065 10.7476C60.7945 10.7476 59.4066 12.0717 59.4066 13.705C59.4066 15.3384 60.7945 16.6625 62.5065 16.6625Z" fill="#EA596E"/>
<path d="M599.291 63.9823H559.108C559.108 63.9823 566.077 85.1165 577.038 95.2843C584.502 102.205 597.056 102.74 601.523 102.74C610.451 102.74 621.827 102.172 629.292 95.2459C642.305 83.1852 648.402 63.9823 648.402 63.9823H599.291Z" fill="#55ACEE"/>
<path d="M643.688 75.1705C645.619 71.3139 646.936 68.0341 647.677 66.0377C647.259 65.328 646.636 64.6418 645.854 63.9823H561.657C560.878 64.6418 560.255 65.325 559.837 66.0348C560.572 68.0222 561.858 71.2873 563.597 75.0285C570.066 79.4854 583.504 83.0581 603.759 83.0581C623.79 83.0581 637.138 79.5594 643.688 75.1705Z" fill="#3B88C3"/>
<path d="M553.51 49.1948V62.3645C553.51 69.2199 575.987 74.78 603.107 74.78C630.234 74.78 652.705 69.2199 652.705 62.3645V49.1948H553.51Z" fill="#55ACEE"/>
<path d="M559.266 55.9467C562.059 56.9256 580.013 62.9944 602.661 62.9944C628.16 62.9944 646.846 57.7064 651.124 54.7755C655.402 51.8388 655.24 26.3985 635.764 16.5944C619.133 8.2218 618.668 0 602.819 0C579.062 0.00295748 537.093 48.1656 559.266 55.9467Z" fill="#F9D2DC"/>
<path d="M584.037 33.7243C593.057 45.2585 613.433 38.9176 622.143 30.8407C629.239 24.2574 638.197 26.0112 648.343 28.5221C645.578 23.8404 641.523 19.5284 635.73 16.6123C619.105 8.24558 618.64 0.0267334 602.797 0.0267334C590.246 0.0267334 572.614 13.4774 562.047 27.3095C567.918 25.4847 576.932 24.6419 584.037 33.7243Z" fill="#F98097"/>
<path d="M584.509 22.5776C586.221 22.5776 587.608 21.2535 587.608 19.6201C587.608 17.9867 586.221 16.6626 584.509 16.6626C582.797 16.6626 581.409 17.9867 581.409 19.6201C581.409 21.2535 582.797 22.5776 584.509 22.5776Z" fill="#EA596E"/>
<path d="M603.107 31.45C604.819 31.45 606.207 30.1259 606.207 28.4925C606.207 26.8591 604.819 25.535 603.107 25.535C601.395 25.535 600.008 26.8591 600.008 28.4925C600.008 30.1259 601.395 31.45 603.107 31.45Z" fill="#EA596E"/>
<path d="M615.507 16.6625C617.219 16.6625 618.607 15.3384 618.607 13.705C618.607 12.0717 617.219 10.7476 615.507 10.7476C613.795 10.7476 612.407 12.0717 612.407 13.705C612.407 15.3384 613.795 16.6625 615.507 16.6625Z" fill="#EA596E"/>
<path d="M138.19 71.208C138.19 69.16 137.699 67.4107 136.718 65.96C135.779 64.5093 134.542 63.3787 133.006 62.568C131.513 61.7573 129.849 61.032 128.014 60.392C126.179 59.752 124.345 59.112 122.51 58.472C120.675 57.7893 118.99 57 117.454 56.104C115.961 55.1653 114.723 53.8853 113.742 52.264C112.803 50.6427 112.334 48.68 112.334 46.376C112.334 42.408 113.785 39.2933 116.686 37.032C119.63 34.7707 123.385 33.64 127.95 33.64C132.558 33.64 136.227 34.6853 138.958 36.776C141.689 38.8667 143.054 41.1493 143.054 43.624C143.054 45.3307 142.713 46.6107 142.03 47.464C141.39 48.2747 140.622 48.68 139.726 48.68C138.062 48.68 136.995 48.36 136.526 47.72L136.334 47.4C136.761 46.8453 136.974 45.7787 136.974 44.2C136.974 41.768 135.95 39.8693 133.902 38.504C131.854 37.096 129.465 36.392 126.734 36.392C124.046 36.392 121.913 37.1173 120.334 38.568C118.755 40.0187 117.966 41.7893 117.966 43.88C117.966 45.9707 118.435 47.72 119.374 49.128C120.355 50.4933 121.614 51.56 123.15 52.328C124.686 53.096 126.371 53.7787 128.206 54.376C130.083 54.9733 131.939 55.6347 133.774 56.36C135.651 57.0427 137.358 57.896 138.894 58.92C140.43 59.9013 141.667 61.3093 142.606 63.144C143.587 64.9787 144.078 67.1973 144.078 69.8C144.078 74.3653 142.457 77.864 139.214 80.296C135.971 82.728 131.897 83.944 126.99 83.944C122.126 83.944 117.881 82.7067 114.254 80.232C110.67 77.7147 108.878 74.5787 108.878 70.824C108.878 69.0747 109.219 67.7093 109.902 66.728C110.585 65.704 111.395 65.192 112.334 65.192C113.998 65.192 115.065 65.4693 115.534 66.024L115.726 66.344C115.342 67.4107 115.15 68.712 115.15 70.248C115.15 73.1493 116.323 75.688 118.67 77.864C121.059 80.04 124.174 81.128 128.014 81.128C130.787 81.128 133.177 80.168 135.182 78.248C137.187 76.2853 138.19 73.9387 138.19 71.208ZM152.512 70.12V80.296C152.085 80.8933 151.338 81.192 150.272 81.192C149.205 81.192 148.352 80.872 147.712 80.232C147.072 79.5493 146.752 78.568 146.752 77.288V52.968C147.178 52.3707 147.925 52.072 148.992 52.072C150.058 52.072 150.912 52.4133 151.552 53.096C152.192 53.736 152.512 54.696 152.512 55.976V60.84C154.645 55.5493 157.589 52.904 161.344 52.904C164.032 52.904 165.994 53.6293 167.232 55.08C168.469 56.488 169.088 58.1733 169.088 60.136C169.088 61.2027 168.768 62.056 168.128 62.696C167.488 63.336 166.869 63.656 166.272 63.656C165.162 63.656 164.437 63.4 164.096 62.888C164.352 62.248 164.48 61.3307 164.48 60.136C164.48 58.9413 164.074 57.8533 163.264 56.872C162.453 55.8907 161.472 55.4 160.32 55.4C158.314 55.4 156.501 57.2347 154.88 60.904C153.301 64.5307 152.512 67.6027 152.512 70.12ZM170.922 55.976C170.922 54.696 171.242 53.736 171.883 53.096C172.523 52.4133 173.333 52.072 174.315 52.072C175.296 52.072 176.085 52.3707 176.683 52.968V66.536C176.683 74.8133 179.136 78.952 184.043 78.952C185.109 78.952 186.048 78.632 186.859 77.992C185.067 76.2853 183.723 74.152 182.827 71.592C181.931 69.032 181.483 66.5573 181.483 64.168C181.483 59.944 182.08 56.7653 183.275 54.632C184.512 52.456 186.581 51.368 189.483 51.368C191.488 51.368 193.088 52.0507 194.283 53.416C195.52 54.7813 196.139 56.5947 196.139 58.856C196.139 67.0053 194.368 73.192 190.827 77.416C192.277 78.2693 193.899 78.696 195.691 78.696C198.08 78.696 200.043 77.672 201.579 75.624C203.115 73.576 203.882 70.44 203.882 66.216C203.925 65.96 204.245 65.832 204.843 65.832C205.611 65.832 205.995 66.8347 205.995 68.84C205.995 72.3813 205.099 75.3253 203.307 77.672C201.515 80.0187 198.784 81.192 195.115 81.192C192.64 81.192 190.507 80.5947 188.715 79.4C187.008 80.5947 185.195 81.192 183.275 81.192C179.605 81.192 176.619 79.8693 174.315 77.224C172.053 74.5787 170.922 70.9093 170.922 66.216V55.976ZM188.523 54.824C186.005 54.824 184.747 57.576 184.747 63.08C184.747 68.584 186.048 72.7867 188.651 75.688C190.272 72.6587 191.083 67.6027 191.083 60.52C191.083 56.7227 190.229 54.824 188.523 54.824ZM230.755 66.6C231.651 66.6 232.099 67.2827 232.099 68.648C232.099 71.8053 230.99 74.6853 228.771 77.288C226.595 79.8907 223.267 81.192 218.787 81.192C214.307 81.192 210.702 79.9973 207.971 77.608C205.283 75.176 203.939 71.6347 203.939 66.984C203.939 62.2907 205.134 58.6427 207.523 56.04C209.912 53.3947 212.963 52.072 216.675 52.072C219.363 52.072 221.326 52.7973 222.563 54.248C223.8 55.656 224.419 57.3413 224.419 59.304C224.419 62.504 223.075 65.1707 220.387 67.304C217.742 69.3947 214.35 70.44 210.211 70.44C210.595 73.1707 211.576 75.24 213.155 76.648C214.776 78.0133 216.888 78.696 219.491 78.696C222.136 78.696 224.504 77.7147 226.595 75.752C228.728 73.7467 229.795 70.824 229.795 66.984C229.838 66.728 230.158 66.6 230.755 66.6ZM210.019 67.496V68.072C212.664 67.7307 214.947 66.8987 216.867 65.576C218.83 64.2533 219.811 62.2907 219.811 59.688C219.811 58.024 219.448 56.7653 218.723 55.912C217.998 55.016 216.974 54.568 215.651 54.568C213.646 54.568 212.195 55.5493 211.299 57.512C210.446 59.4747 210.019 62.8027 210.019 67.496ZM229.938 46.504C229.938 45.224 230.258 44.264 230.898 43.624C231.538 42.9413 232.348 42.6 233.33 42.6C234.311 42.6 235.1 42.8987 235.698 43.496V52.968H244.466C245.362 52.968 245.938 53.1387 246.194 53.48C246.492 53.8213 246.642 54.3973 246.642 55.208H235.698V71.336C235.698 73.6827 236.359 75.496 237.682 76.776C239.047 78.056 240.604 78.696 242.354 78.696C244.999 78.696 246.94 77.7147 248.178 75.752C249.415 73.7893 250.034 70.6107 250.034 66.216C250.119 65.96 250.439 65.832 250.994 65.832C251.762 65.832 252.146 66.9627 252.146 69.224C252.146 72.68 251.271 75.5387 249.522 77.8C247.815 80.0613 245.17 81.192 241.586 81.192C238.002 81.192 235.164 80.2533 233.074 78.376C230.983 76.4987 229.938 73.704 229.938 69.992V46.504ZM250.188 66.152C250.188 61.2453 251.34 57.6827 253.644 55.464C255.99 53.2027 259.084 52.072 262.924 52.072C265.398 52.072 267.361 52.5627 268.812 53.544V44.84C268.812 39.464 269.345 35.56 270.412 33.128C271.521 30.6533 273.569 29.416 276.556 29.416C278.177 29.416 279.436 30.0987 280.332 31.464C281.228 32.8293 281.676 34.7707 281.676 37.288C281.676 41.8533 279.308 46.504 274.572 51.24V71.336C274.572 73.768 274.977 75.6027 275.788 76.84C276.641 78.0773 277.75 78.696 279.116 78.696C280.481 78.696 281.782 77.864 283.02 76.2C284.3 74.4933 284.94 71.8053 284.94 68.136C284.94 67.3253 284.918 66.6853 284.876 66.216C284.918 65.96 285.238 65.832 285.836 65.832C286.604 65.832 286.988 66.9627 286.988 69.224C286.988 72.7653 286.177 75.6453 284.556 77.864C282.977 80.0827 280.929 81.192 278.412 81.192C273.846 81.192 270.86 79.1867 269.452 75.176C268.641 76.968 267.532 78.4187 266.124 79.528C264.716 80.5947 263.137 81.128 261.388 81.128C253.921 81.128 250.188 76.136 250.188 66.152ZM262.028 78.632C263.606 78.632 265.1 77.7787 266.508 76.072C267.958 74.3227 268.684 72.104 268.684 69.416V61.224C268.684 59.1333 268.172 57.512 267.148 56.36C266.166 55.1653 264.993 54.568 263.628 54.568C262.305 54.568 261.26 54.6747 260.492 54.888C259.766 55.1013 259.041 55.5707 258.316 56.296C256.95 57.704 256.268 60.9893 256.268 66.152C256.268 71.3573 256.865 74.7707 258.06 76.392C259.126 77.8853 260.449 78.632 262.028 78.632ZM276.62 31.912C275.724 31.912 275.148 32.9147 274.892 34.92C274.678 36.8827 274.572 41.2987 274.572 48.168C277.473 44.4133 278.924 40.7653 278.924 37.224C278.924 33.6827 278.156 31.912 276.62 31.912ZM311.755 66.6C312.651 66.6 313.099 67.2827 313.099 68.648C313.099 71.8053 311.99 74.6853 309.771 77.288C307.595 79.8907 304.267 81.192 299.787 81.192C295.307 81.192 291.702 79.9973 288.971 77.608C286.283 75.176 284.939 71.6347 284.939 66.984C284.939 62.2907 286.134 58.6427 288.523 56.04C290.912 53.3947 293.963 52.072 297.675 52.072C300.363 52.072 302.326 52.7973 303.563 54.248C304.8 55.656 305.419 57.3413 305.419 59.304C305.419 62.504 304.075 65.1707 301.387 67.304C298.742 69.3947 295.35 70.44 291.211 70.44C291.595 73.1707 292.576 75.24 294.155 76.648C295.776 78.0133 297.888 78.696 300.491 78.696C303.136 78.696 305.504 77.7147 307.595 75.752C309.728 73.7467 310.795 70.824 310.795 66.984C310.838 66.728 311.158 66.6 311.755 66.6ZM291.019 67.496V68.072C293.664 67.7307 295.947 66.8987 297.867 65.576C299.83 64.2533 300.811 62.2907 300.811 59.688C300.811 58.024 300.448 56.7653 299.723 55.912C298.998 55.016 297.974 54.568 296.651 54.568C294.646 54.568 293.195 55.5493 292.299 57.512C291.446 59.4747 291.019 62.8027 291.019 67.496ZM327.194 77.288V61.928C327.194 56.8507 325.914 54.312 323.354 54.312C321.22 54.312 319.578 55.4853 318.426 57.832C317.316 60.1787 316.762 64.3173 316.762 70.248V80.296C316.335 80.8933 315.588 81.192 314.522 81.192C313.455 81.192 312.602 80.872 311.962 80.232C311.322 79.5493 311.002 78.568 311.002 77.288V52.968C311.428 52.3707 312.175 52.072 313.242 52.072C314.308 52.072 315.162 52.4133 315.802 53.096C316.442 53.736 316.762 54.696 316.762 55.976C318.212 53.3733 320.666 52.072 324.122 52.072C328.175 52.072 330.906 53.8 332.314 57.256C333.764 53.8 336.474 52.072 340.442 52.072C343.215 52.072 345.412 52.9467 347.034 54.696C348.698 56.4453 349.53 58.9627 349.53 62.248V71.336C349.53 73.768 349.914 75.6027 350.682 76.84C351.45 78.0773 352.58 78.696 354.074 78.696C355.61 78.696 356.954 77.7573 358.106 75.88C359.258 73.96 359.834 70.7387 359.834 66.216C359.876 65.96 360.196 65.832 360.794 65.832C361.562 65.832 361.946 66.9627 361.946 69.224C361.946 72.8507 361.156 75.752 359.578 77.928C358.042 80.104 355.78 81.192 352.794 81.192C349.807 81.192 347.503 80.168 345.882 78.12C344.303 76.072 343.514 73.1707 343.514 69.416V61.928C343.514 56.8507 342.234 54.312 339.674 54.312C335.322 54.312 333.146 59.6667 333.146 70.376V80.296C332.719 80.8933 331.951 81.192 330.842 81.192C329.775 81.192 328.9 80.872 328.218 80.232C327.535 79.5493 327.194 78.568 327.194 77.288ZM372.803 52.072C376.6 52.072 379.694 53.3307 382.083 55.848C384.472 58.3653 385.667 61.8 385.667 66.152C385.667 70.4613 384.536 74.0453 382.275 76.904C380.056 79.7627 377.07 81.192 373.315 81.192C369.56 81.192 366.424 79.912 363.907 77.352C361.432 74.7493 360.195 71.1653 360.195 66.6C360.195 61.992 361.347 58.4293 363.651 55.912C365.998 53.352 369.048 52.072 372.803 52.072ZM372.867 54.568C371.715 54.568 370.712 54.8667 369.859 55.464C369.048 56.0187 368.643 56.8293 368.643 57.896C368.643 60.6267 369.71 63.2507 371.843 65.768C373.976 68.2427 376.515 69.8853 379.459 70.696C379.544 69.0747 379.587 67.688 379.587 66.536C379.587 62.0987 379.118 59.0053 378.179 57.256C377.24 55.464 375.47 54.568 372.867 54.568ZM366.275 66.536C366.275 70.888 366.808 74.0027 367.875 75.88C368.984 77.7573 370.776 78.696 373.251 78.696C374.958 78.696 376.259 78.2693 377.155 77.416C378.094 76.52 378.734 75.0907 379.075 73.128C376.302 72.5307 373.742 71.272 371.395 69.352C369.091 67.432 367.406 65.2987 366.339 62.952C366.296 63.6773 366.275 64.872 366.275 66.536ZM395.887 70.12V80.296C395.46 80.8933 394.713 81.192 393.647 81.192C392.58 81.192 391.727 80.872 391.087 80.232C390.447 79.5493 390.127 78.568 390.127 77.288V52.968C390.553 52.3707 391.3 52.072 392.367 52.072C393.433 52.072 394.287 52.4133 394.927 53.096C395.567 53.736 395.887 54.696 395.887 55.976V60.84C398.02 55.5493 400.964 52.904 404.719 52.904C407.407 52.904 409.369 53.6293 410.607 55.08C411.844 56.488 412.463 58.1733 412.463 60.136C412.463 61.2027 412.143 62.056 411.503 62.696C410.863 63.336 410.244 63.656 409.647 63.656C408.537 63.656 407.812 63.4 407.471 62.888C407.727 62.248 407.855 61.3307 407.855 60.136C407.855 58.9413 407.449 57.8533 406.639 56.872C405.828 55.8907 404.847 55.4 403.695 55.4C401.689 55.4 399.876 57.2347 398.255 60.904C396.676 64.5307 395.887 67.6027 395.887 70.12ZM433.946 53.928C434.5 52.6907 435.375 52.072 436.57 52.072C437.807 52.072 438.724 52.3707 439.322 52.968V71.336C439.322 73.768 439.706 75.6027 440.474 76.84C441.242 78.0773 442.287 78.696 443.61 78.696C447.62 78.696 449.626 74.536 449.626 66.216C449.668 65.96 449.988 65.832 450.586 65.832C451.354 65.832 451.738 66.9627 451.738 69.224C451.738 72.8507 450.948 75.752 449.37 77.928C447.834 80.104 445.658 81.192 442.842 81.192C438.532 81.192 435.674 79.2933 434.266 75.496C433.455 77.2453 432.346 78.632 430.938 79.656C429.53 80.68 427.93 81.192 426.138 81.192C418.671 81.192 414.938 76.3067 414.938 66.536C414.938 61.5867 416.09 57.9387 418.394 55.592C420.74 53.2453 423.834 52.072 427.674 52.072C430.618 52.072 432.708 52.6907 433.946 53.928ZM421.914 74.408C422.511 76.2853 423.194 77.48 423.962 77.992C424.73 78.4613 425.754 78.696 427.034 78.696C428.314 78.696 429.7 77.9067 431.194 76.328C432.73 74.7067 433.498 72.616 433.498 70.056V61.288C433.498 59.2827 432.964 57.6613 431.898 56.424C430.874 55.1867 429.7 54.568 428.378 54.568C427.098 54.568 426.074 54.696 425.306 54.952C424.538 55.208 423.812 55.7413 423.13 56.552C421.722 58.088 421.018 61.416 421.018 66.536C421.018 69.9067 421.316 72.5307 421.914 74.408ZM484.374 65.832C485.142 65.832 485.526 66.9627 485.526 69.224C485.526 72.8507 484.737 75.752 483.158 77.928C481.622 80.104 479.361 81.192 476.374 81.192C473.387 81.192 471.083 80.168 469.462 78.12C467.883 76.072 467.094 73.1707 467.094 69.416V61.928C467.094 56.8507 465.814 54.312 463.254 54.312C460.993 54.312 459.137 55.464 457.686 57.768C456.235 60.072 455.51 63.9333 455.51 69.352V80.296C455.083 80.8933 454.337 81.192 453.27 81.192C452.203 81.192 451.35 80.872 450.71 80.232C450.07 79.5493 449.75 78.568 449.75 77.288V52.968C450.177 52.3707 450.987 52.072 452.182 52.072C454.401 52.072 455.51 53.672 455.51 56.872C457.302 53.672 460.139 52.072 464.022 52.072C466.795 52.072 468.993 52.9467 470.614 54.696C472.278 56.4453 473.11 58.9627 473.11 62.248V71.336C473.11 73.768 473.494 75.6027 474.262 76.84C475.03 78.0773 476.161 78.696 477.654 78.696C479.19 78.696 480.534 77.7573 481.686 75.88C482.838 73.96 483.414 70.7387 483.414 66.216C483.457 65.96 483.777 65.832 484.374 65.832ZM502.635 53.928C503.189 52.6907 504.064 52.072 505.259 52.072C506.496 52.072 507.413 52.3707 508.011 52.968V85.48C508.523 85.4373 509.333 85.416 510.443 85.416C511.552 85.416 512.107 85.8853 512.107 86.824L511.723 87.784C510.101 87.784 508.864 87.8053 508.011 87.848V91.176C507.968 95.5707 506.944 99.0053 504.939 101.48C502.976 103.997 500.352 105.256 497.067 105.256C495.104 105.256 493.355 104.659 491.819 103.464C490.325 102.312 489.579 100.477 489.579 97.96C489.579 94.7173 490.731 92.136 493.035 90.216C495.339 88.296 498.411 86.952 502.251 86.184V76.776C500.459 79.72 497.984 81.192 494.827 81.192C487.36 81.192 483.627 76.3067 483.627 66.536C483.627 61.5867 484.779 57.9387 487.083 55.592C489.429 53.2453 492.523 52.072 496.363 52.072C499.307 52.072 501.397 52.6907 502.635 53.928ZM502.251 67.624V63.08C502.251 60.0507 501.739 57.8747 500.715 56.552C499.691 55.2293 498.496 54.568 497.131 54.568C495.808 54.568 494.763 54.696 493.995 54.952C493.227 55.208 492.48 55.7413 491.755 56.552C490.389 58.088 489.707 61.416 489.707 66.536C489.707 69.9067 490.005 72.5307 490.603 74.408C491.2 76.2853 491.883 77.48 492.651 77.992C493.419 78.4613 494.485 78.696 495.851 78.696C497.259 78.696 498.667 77.8213 500.075 76.072C501.525 74.28 502.251 71.464 502.251 67.624ZM502.251 91.048V88.616C495.979 90.024 492.843 93.2027 492.843 98.152C492.843 99.6453 493.248 100.776 494.059 101.544C494.869 102.355 495.829 102.76 496.939 102.76C498.731 102.76 500.053 101.928 500.907 100.264C501.803 98.6 502.251 95.528 502.251 91.048ZM526.991 52.072C530.788 52.072 533.881 53.3307 536.271 55.848C538.66 58.3653 539.855 61.8 539.855 66.152C539.855 70.4613 538.724 74.0453 536.463 76.904C534.244 79.7627 531.257 81.192 527.503 81.192C523.748 81.192 520.612 79.912 518.095 77.352C515.62 74.7493 514.383 71.1653 514.383 66.6C514.383 61.992 515.535 58.4293 517.839 55.912C520.185 53.352 523.236 52.072 526.991 52.072ZM527.055 54.568C525.903 54.568 524.9 54.8667 524.047 55.464C523.236 56.0187 522.831 56.8293 522.831 57.896C522.831 60.6267 523.897 63.2507 526.031 65.768C528.164 68.2427 530.703 69.8853 533.647 70.696C533.732 69.0747 533.775 67.688 533.775 66.536C533.775 62.0987 533.305 59.0053 532.367 57.256C531.428 55.464 529.657 54.568 527.055 54.568ZM520.463 66.536C520.463 70.888 520.996 74.0027 522.062 75.88C523.172 77.7573 524.964 78.696 527.439 78.696C529.145 78.696 530.447 78.2693 531.343 77.416C532.281 76.52 532.921 75.0907 533.263 73.128C530.489 72.5307 527.929 71.272 525.583 69.352C523.279 67.432 521.593 65.2987 520.527 62.952C520.484 63.6773 520.463 64.872 520.463 66.536Z" fill="#EA596E"/>
</svg>
